<mxfile host="app.diagrams.net" modified="2022-11-01T10:27:09.641Z" agent="5.0 (Windows NT 10.0; Win64; x64) AppleWebKit/537.36 (KHTML, like Gecko) Chrome/106.0.0.0 Safari/537.36" etag="4Gp0EvRAdSnx44sbq5km" version="20.5.1" type="github">
  <diagram id="C5RBs43oDa-KdzZeNtuy" name="Page-1">
    <mxGraphModel dx="4281" dy="1500" grid="1" gridSize="10" guides="1" tooltips="1" connect="1" arrows="1" fold="1" page="1" pageScale="1" pageWidth="1654" pageHeight="2336" math="0" shadow="0">
      <root>
        <mxCell id="WIyWlLk6GJQsqaUBKTNV-0" />
        <mxCell id="WIyWlLk6GJQsqaUBKTNV-1" parent="WIyWlLk6GJQsqaUBKTNV-0" />
        <mxCell id="6-PGRD4vN4O86Qc10RXO-2" value="Başla&amp;nbsp;" style="ellipse;whiteSpace=wrap;html=1;" vertex="1" parent="WIyWlLk6GJQsqaUBKTNV-1">
          <mxGeometry x="-1540" y="170" width="120" height="60" as="geometry" />
        </mxCell>
        <mxCell id="6-PGRD4vN4O86Qc10RXO-3" value="" style="endArrow=classic;html=1;rounded=0;exitX=0.5;exitY=1;exitDx=0;exitDy=0;entryX=0.5;entryY=0;entryDx=0;entryDy=0;" edge="1" parent="WIyWlLk6GJQsqaUBKTNV-1" source="6-PGRD4vN4O86Qc10RXO-2" target="6-PGRD4vN4O86Qc10RXO-4">
          <mxGeometry width="50" height="50" relative="1" as="geometry">
            <mxPoint x="-1420" y="490" as="sourcePoint" />
            <mxPoint x="-1480" y="270" as="targetPoint" />
          </mxGeometry>
        </mxCell>
        <mxCell id="6-PGRD4vN4O86Qc10RXO-4" value="Init&amp;nbsp; ayarlarını yap .&amp;nbsp;&lt;br&gt;Kalibrasyonu başlat .&amp;nbsp;" style="rounded=0;whiteSpace=wrap;html=1;" vertex="1" parent="WIyWlLk6GJQsqaUBKTNV-1">
          <mxGeometry x="-1540" y="280" width="120" height="60" as="geometry" />
        </mxCell>
        <mxCell id="6-PGRD4vN4O86Qc10RXO-5" value="Satış Var mı ?" style="rhombus;whiteSpace=wrap;html=1;" vertex="1" parent="WIyWlLk6GJQsqaUBKTNV-1">
          <mxGeometry x="-1540" y="380" width="120" height="100" as="geometry" />
        </mxCell>
        <mxCell id="6-PGRD4vN4O86Qc10RXO-6" value="" style="endArrow=classic;html=1;rounded=0;exitX=0.5;exitY=1;exitDx=0;exitDy=0;entryX=0.5;entryY=0;entryDx=0;entryDy=0;" edge="1" parent="WIyWlLk6GJQsqaUBKTNV-1" source="6-PGRD4vN4O86Qc10RXO-4" target="6-PGRD4vN4O86Qc10RXO-5">
          <mxGeometry width="50" height="50" relative="1" as="geometry">
            <mxPoint x="-1420" y="480" as="sourcePoint" />
            <mxPoint x="-1370" y="430" as="targetPoint" />
          </mxGeometry>
        </mxCell>
        <mxCell id="6-PGRD4vN4O86Qc10RXO-8" value="Doğrulama Yap&amp;nbsp;&lt;br&gt;(Satış Öncesi Miktar - Satış Sonrası Miktar = Satış Miktarı )" style="rounded=0;whiteSpace=wrap;html=1;" vertex="1" parent="WIyWlLk6GJQsqaUBKTNV-1">
          <mxGeometry x="-1160" y="400" width="217" height="50" as="geometry" />
        </mxCell>
        <mxCell id="6-PGRD4vN4O86Qc10RXO-9" value="Evet&lt;br&gt;" style="text;html=1;strokeColor=none;fillColor=none;align=center;verticalAlign=middle;whiteSpace=wrap;rounded=0;" vertex="1" parent="WIyWlLk6GJQsqaUBKTNV-1">
          <mxGeometry x="-1430" y="390" width="60" height="30" as="geometry" />
        </mxCell>
        <mxCell id="6-PGRD4vN4O86Qc10RXO-12" style="edgeStyle=orthogonalEdgeStyle;rounded=0;orthogonalLoop=1;jettySize=auto;html=1;exitX=1;exitY=0.5;exitDx=0;exitDy=0;" edge="1" parent="WIyWlLk6GJQsqaUBKTNV-1" source="6-PGRD4vN4O86Qc10RXO-5" target="6-PGRD4vN4O86Qc10RXO-11">
          <mxGeometry relative="1" as="geometry">
            <mxPoint x="-1400" y="470" as="sourcePoint" />
            <Array as="points">
              <mxPoint x="-1350" y="430" />
            </Array>
          </mxGeometry>
        </mxCell>
        <mxCell id="6-PGRD4vN4O86Qc10RXO-11" value="Satış interruptını Çalıştır&amp;nbsp;" style="rounded=0;whiteSpace=wrap;html=1;" vertex="1" parent="WIyWlLk6GJQsqaUBKTNV-1">
          <mxGeometry x="-1350" y="400" width="120" height="60" as="geometry" />
        </mxCell>
        <mxCell id="6-PGRD4vN4O86Qc10RXO-15" style="edgeStyle=orthogonalEdgeStyle;rounded=0;orthogonalLoop=1;jettySize=auto;html=1;entryX=0;entryY=0.5;entryDx=0;entryDy=0;" edge="1" parent="WIyWlLk6GJQsqaUBKTNV-1" target="6-PGRD4vN4O86Qc10RXO-8">
          <mxGeometry relative="1" as="geometry">
            <mxPoint x="-1230" y="425" as="sourcePoint" />
            <mxPoint x="-1200" y="430" as="targetPoint" />
            <Array as="points">
              <mxPoint x="-1230" y="425" />
            </Array>
          </mxGeometry>
        </mxCell>
        <mxCell id="6-PGRD4vN4O86Qc10RXO-20" value="Satış Başarılı mı ?&amp;nbsp;" style="rhombus;whiteSpace=wrap;html=1;" vertex="1" parent="WIyWlLk6GJQsqaUBKTNV-1">
          <mxGeometry x="-1130" y="510" width="120" height="80" as="geometry" />
        </mxCell>
        <mxCell id="6-PGRD4vN4O86Qc10RXO-24" value="" style="endArrow=classic;html=1;rounded=0;exitX=0.406;exitY=1;exitDx=0;exitDy=0;exitPerimeter=0;entryX=0.5;entryY=0;entryDx=0;entryDy=0;" edge="1" parent="WIyWlLk6GJQsqaUBKTNV-1" source="6-PGRD4vN4O86Qc10RXO-8" target="6-PGRD4vN4O86Qc10RXO-20">
          <mxGeometry width="50" height="50" relative="1" as="geometry">
            <mxPoint x="-1100" y="520" as="sourcePoint" />
            <mxPoint x="-1070" y="500" as="targetPoint" />
          </mxGeometry>
        </mxCell>
        <mxCell id="6-PGRD4vN4O86Qc10RXO-25" value="Satış Durumundan çık" style="rounded=1;whiteSpace=wrap;html=1;" vertex="1" parent="WIyWlLk6GJQsqaUBKTNV-1">
          <mxGeometry x="-1130" y="630" width="120" height="60" as="geometry" />
        </mxCell>
        <mxCell id="6-PGRD4vN4O86Qc10RXO-26" value="" style="endArrow=classic;html=1;rounded=0;entryX=0.5;entryY=0;entryDx=0;entryDy=0;exitX=0.5;exitY=1;exitDx=0;exitDy=0;" edge="1" parent="WIyWlLk6GJQsqaUBKTNV-1" target="6-PGRD4vN4O86Qc10RXO-25">
          <mxGeometry width="50" height="50" relative="1" as="geometry">
            <mxPoint x="-1070" y="589.9999999999998" as="sourcePoint" />
            <mxPoint x="-1130" y="550" as="targetPoint" />
          </mxGeometry>
        </mxCell>
        <mxCell id="6-PGRD4vN4O86Qc10RXO-27" value="Evet&lt;br&gt;" style="text;html=1;strokeColor=none;fillColor=none;align=center;verticalAlign=middle;whiteSpace=wrap;rounded=0;" vertex="1" parent="WIyWlLk6GJQsqaUBKTNV-1">
          <mxGeometry x="-1063" y="590" width="60" height="30" as="geometry" />
        </mxCell>
        <mxCell id="6-PGRD4vN4O86Qc10RXO-28" value="" style="endArrow=classic;html=1;rounded=0;exitX=1;exitY=0.5;exitDx=0;exitDy=0;entryX=0;entryY=0.5;entryDx=0;entryDy=0;" edge="1" parent="WIyWlLk6GJQsqaUBKTNV-1" source="6-PGRD4vN4O86Qc10RXO-20" target="6-PGRD4vN4O86Qc10RXO-31">
          <mxGeometry width="50" height="50" relative="1" as="geometry">
            <mxPoint x="-960" y="670" as="sourcePoint" />
            <mxPoint x="-950" y="550" as="targetPoint" />
          </mxGeometry>
        </mxCell>
        <mxCell id="6-PGRD4vN4O86Qc10RXO-30" value="Hayır" style="text;html=1;strokeColor=none;fillColor=none;align=center;verticalAlign=middle;whiteSpace=wrap;rounded=0;" vertex="1" parent="WIyWlLk6GJQsqaUBKTNV-1">
          <mxGeometry x="-943" y="510" width="63" height="30" as="geometry" />
        </mxCell>
        <mxCell id="6-PGRD4vN4O86Qc10RXO-31" value="Hiç ürün geçişi sağlandı mı ?" style="rhombus;whiteSpace=wrap;html=1;" vertex="1" parent="WIyWlLk6GJQsqaUBKTNV-1">
          <mxGeometry x="-880" y="500" width="120" height="100" as="geometry" />
        </mxCell>
        <mxCell id="6-PGRD4vN4O86Qc10RXO-33" value="" style="endArrow=classic;html=1;rounded=0;exitX=1;exitY=0.5;exitDx=0;exitDy=0;entryX=0;entryY=0.5;entryDx=0;entryDy=0;" edge="1" parent="WIyWlLk6GJQsqaUBKTNV-1" source="6-PGRD4vN4O86Qc10RXO-31" target="6-PGRD4vN4O86Qc10RXO-35">
          <mxGeometry width="50" height="50" relative="1" as="geometry">
            <mxPoint x="-940" y="690" as="sourcePoint" />
            <mxPoint x="-760" y="550" as="targetPoint" />
          </mxGeometry>
        </mxCell>
        <mxCell id="6-PGRD4vN4O86Qc10RXO-34" value="Evet&lt;br&gt;" style="text;html=1;strokeColor=none;fillColor=none;align=center;verticalAlign=middle;whiteSpace=wrap;rounded=0;" vertex="1" parent="WIyWlLk6GJQsqaUBKTNV-1">
          <mxGeometry x="-710" y="510" width="60" height="30" as="geometry" />
        </mxCell>
        <mxCell id="6-PGRD4vN4O86Qc10RXO-35" value="Geçen ürün miktarını hesapla" style="rounded=1;whiteSpace=wrap;html=1;" vertex="1" parent="WIyWlLk6GJQsqaUBKTNV-1">
          <mxGeometry x="-610" y="520" width="130" height="60" as="geometry" />
        </mxCell>
        <mxCell id="6-PGRD4vN4O86Qc10RXO-37" value="" style="endArrow=classic;html=1;rounded=0;exitX=1;exitY=0.5;exitDx=0;exitDy=0;entryX=0;entryY=0.5;entryDx=0;entryDy=0;" edge="1" parent="WIyWlLk6GJQsqaUBKTNV-1" source="6-PGRD4vN4O86Qc10RXO-35" target="6-PGRD4vN4O86Qc10RXO-41">
          <mxGeometry width="50" height="50" relative="1" as="geometry">
            <mxPoint x="-600" y="540" as="sourcePoint" />
            <mxPoint x="-550" y="550" as="targetPoint" />
          </mxGeometry>
        </mxCell>
        <mxCell id="6-PGRD4vN4O86Qc10RXO-41" value="Telafi&amp;nbsp; Satışı Yap" style="rounded=0;whiteSpace=wrap;html=1;" vertex="1" parent="WIyWlLk6GJQsqaUBKTNV-1">
          <mxGeometry x="-330" y="520" width="120" height="60" as="geometry" />
        </mxCell>
        <mxCell id="6-PGRD4vN4O86Qc10RXO-50" value="?" style="text;html=1;strokeColor=none;fillColor=none;align=center;verticalAlign=middle;whiteSpace=wrap;rounded=0;" vertex="1" parent="WIyWlLk6GJQsqaUBKTNV-1">
          <mxGeometry x="-590" y="460" width="90" height="50" as="geometry" />
        </mxCell>
        <mxCell id="6-PGRD4vN4O86Qc10RXO-51" value="" style="endArrow=classic;html=1;rounded=0;exitX=1;exitY=0.5;exitDx=0;exitDy=0;" edge="1" parent="WIyWlLk6GJQsqaUBKTNV-1" source="6-PGRD4vN4O86Qc10RXO-41">
          <mxGeometry width="50" height="50" relative="1" as="geometry">
            <mxPoint x="-710" y="710" as="sourcePoint" />
            <mxPoint x="-940" y="420" as="targetPoint" />
            <Array as="points">
              <mxPoint x="-160" y="550" />
              <mxPoint x="-160" y="480" />
              <mxPoint x="-160" y="420" />
            </Array>
          </mxGeometry>
        </mxCell>
        <mxCell id="6-PGRD4vN4O86Qc10RXO-53" value="Hayır" style="text;html=1;strokeColor=none;fillColor=none;align=center;verticalAlign=middle;whiteSpace=wrap;rounded=0;" vertex="1" parent="WIyWlLk6GJQsqaUBKTNV-1">
          <mxGeometry x="-770" y="600" width="60" height="30" as="geometry" />
        </mxCell>
        <mxCell id="6-PGRD4vN4O86Qc10RXO-58" value="" style="endArrow=classic;html=1;rounded=0;exitX=0.5;exitY=1;exitDx=0;exitDy=0;entryX=0.5;entryY=0;entryDx=0;entryDy=0;" edge="1" parent="WIyWlLk6GJQsqaUBKTNV-1" source="6-PGRD4vN4O86Qc10RXO-5" target="6-PGRD4vN4O86Qc10RXO-75">
          <mxGeometry width="50" height="50" relative="1" as="geometry">
            <mxPoint x="-1580" y="560" as="sourcePoint" />
            <mxPoint x="-1480" y="540" as="targetPoint" />
          </mxGeometry>
        </mxCell>
        <mxCell id="6-PGRD4vN4O86Qc10RXO-59" value="Hayır" style="text;html=1;strokeColor=none;fillColor=none;align=center;verticalAlign=middle;whiteSpace=wrap;rounded=0;" vertex="1" parent="WIyWlLk6GJQsqaUBKTNV-1">
          <mxGeometry x="-1470" y="490" width="60" height="30" as="geometry" />
        </mxCell>
        <mxCell id="6-PGRD4vN4O86Qc10RXO-68" value="" style="endArrow=classic;html=1;rounded=0;exitX=0.5;exitY=1;exitDx=0;exitDy=0;entryX=0.5;entryY=0;entryDx=0;entryDy=0;" edge="1" parent="WIyWlLk6GJQsqaUBKTNV-1" source="6-PGRD4vN4O86Qc10RXO-31" target="6-PGRD4vN4O86Qc10RXO-71">
          <mxGeometry width="50" height="50" relative="1" as="geometry">
            <mxPoint x="-750" y="640" as="sourcePoint" />
            <mxPoint x="-820" y="630" as="targetPoint" />
          </mxGeometry>
        </mxCell>
        <mxCell id="6-PGRD4vN4O86Qc10RXO-71" value="Satış&amp;nbsp; Hatası Ver" style="rounded=0;whiteSpace=wrap;html=1;" vertex="1" parent="WIyWlLk6GJQsqaUBKTNV-1">
          <mxGeometry x="-880" y="640" width="120" height="60" as="geometry" />
        </mxCell>
        <mxCell id="6-PGRD4vN4O86Qc10RXO-75" value="Bekle" style="rounded=1;whiteSpace=wrap;html=1;" vertex="1" parent="WIyWlLk6GJQsqaUBKTNV-1">
          <mxGeometry x="-1540" y="550" width="120" height="60" as="geometry" />
        </mxCell>
        <mxCell id="6-PGRD4vN4O86Qc10RXO-76" value="" style="endArrow=classic;html=1;rounded=0;exitX=0;exitY=0.5;exitDx=0;exitDy=0;entryX=0;entryY=0.5;entryDx=0;entryDy=0;" edge="1" parent="WIyWlLk6GJQsqaUBKTNV-1" source="6-PGRD4vN4O86Qc10RXO-75" target="6-PGRD4vN4O86Qc10RXO-5">
          <mxGeometry width="50" height="50" relative="1" as="geometry">
            <mxPoint x="-1120" y="670" as="sourcePoint" />
            <mxPoint x="-1070" y="620" as="targetPoint" />
            <Array as="points">
              <mxPoint x="-1600" y="580" />
              <mxPoint x="-1600" y="500" />
              <mxPoint x="-1600" y="430" />
            </Array>
          </mxGeometry>
        </mxCell>
      </root>
    </mxGraphModel>
  </diagram>
</mxfile>
